<svg width="50" height="50" viewBox="0 0 50 50" fill="none" xmlns="http://www.w3.org/2000/svg">
<path d="M17.1875 42.1875C18.0504 42.1875 18.75 41.4879 18.75 40.625C18.75 39.7621 18.0504 39.0625 17.1875 39.0625C16.3246 39.0625 15.625 39.7621 15.625 40.625C15.625 41.4879 16.3246 42.1875 17.1875 42.1875Z" stroke="black" stroke-width="2.5" stroke-linecap="round" stroke-linejoin="round"/>
<path d="M39.0625 42.1875C39.9254 42.1875 40.625 41.4879 40.625 40.625C40.625 39.7621 39.9254 39.0625 39.0625 39.0625C38.1996 39.0625 37.5 39.7621 37.5 40.625C37.5 41.4879 38.1996 42.1875 39.0625 42.1875Z" stroke="black" stroke-width="2.5" stroke-linecap="round" stroke-linejoin="round"/>
<path d="M4.6875 7.8125H10.9375L15.625 34.375H40.625" stroke="black" stroke-width="2.5" stroke-linecap="round" stroke-linejoin="round"/>
<path d="M15.625 28.125H39.9844C40.1651 28.1251 40.3402 28.0626 40.48 27.9481C40.6197 27.8336 40.7155 27.6742 40.751 27.4971L43.5635 13.4346C43.5862 13.3212 43.5834 13.2042 43.5554 13.092C43.5274 12.9798 43.4748 12.8752 43.4015 12.7858C43.3281 12.6964 43.2358 12.6244 43.1313 12.5749C43.0267 12.5255 42.9125 12.4999 42.7969 12.5H12.5" stroke="black" stroke-width="2.5" stroke-linecap="round" stroke-linejoin="round"/>
</svg>
