<svg width="29" height="30" viewBox="0 0 29 30" fill="none" xmlns="http://www.w3.org/2000/svg">
<path d="M0.829173 3.03578L0.877079 3.00563L6.93305 0L13.4695 8.77973L10.4622 12.8193C10.5522 14.3428 11.1935 15.7801 12.2647 16.8592C13.336 17.9384 14.7627 18.5844 16.275 18.675L20.2848 15.6455L29 22.2302L26.0413 28.28L26.0164 28.3311L25.9864 28.3793C25.8285 28.6356 25.6081 28.8469 25.3462 28.9931C25.0843 29.1393 24.7897 29.2156 24.4902 29.2146H22.9276C19.9167 29.2146 16.9353 28.6172 14.1536 27.4564C11.3719 26.2957 8.84434 24.5944 6.71531 22.4496C4.58629 20.3048 2.89746 17.7586 1.74525 14.9563C0.593034 12.154 -1.43909e-07 9.15047 9.04025e-06 6.11729V4.543C-0.000949663 4.24137 0.0747446 3.94451 0.219883 3.68068C0.365021 3.41686 0.574773 3.19485 0.829173 3.03578V3.03578ZM2.23796 6.11729C2.23796 17.6101 11.5193 26.9601 22.9276 26.9601H24.192L26.1716 22.9116L20.2844 18.4635L17.0067 20.9399H16.6338C14.4013 20.9374 12.261 20.0429 10.6825 18.4526C9.10388 16.8624 8.21595 14.7062 8.21345 12.4573V12.0815L10.6716 8.77966L6.2567 2.84922L2.23796 4.84384V6.11729Z" fill="#D43B4D"/>
</svg>
